<?xml version="1.0" encoding="UTF-8"?>
<svg height="392px"
    version="1.1"
    viewBox="0 0 360 392"
    width="360px"
    xmlns="http://www.w3.org/2000/svg"
    >
  <!-- Generator: sketchtool 51.3 (57544) - http://www.bohemiancoding.com/sketch -->
  <title>A7185B89-5889-40AF-9F21-67FADCD88350</title>
  <desc>Created with sketchtool.</desc>
  <defs></defs>
  <g
      fill="none"
      fill-rule="evenodd"
      id="App"
      opacity="0.400000006"
      stroke="none"
      stroke-width="1">
    <g
        fill="#7C8CC0"
        id="Android-2"
        transform="translate(0.000000, -199.000000)">
      <g id="screen">
        <g
            id="bg"
            transform="translate(0.000000, 148.000000)">
          <g
              id="starOne"
              transform="translate(121.000000, 182.000000)">
            <path d="M7.5,0 L10,0 L10,5 L7.5,5 L7.5,0 Z M7.5,12 L10,12 L10,17 L7.5,17 L7.5,12 Z M0,7.5 L5,7.5 L5,10 L0,10 L0,7.5 Z M12,7.5 L17,7.5 L17,10 L12,10 L12,7.5 Z M7.5,7.5 L10,7.5 L10,10 L7.5,10 L7.5,7.5 Z"></path>
          </g>
          <g
              id="starOne"
              transform="translate(121.000000, 382.000000)">
            <path d="M7.5,0 L10,0 L10,5 L7.5,5 L7.5,0 Z M7.5,12 L10,12 L10,17 L7.5,17 L7.5,12 Z M0,7.5 L5,7.5 L5,10 L0,10 L0,7.5 Z M12,7.5 L17,7.5 L17,10 L12,10 L12,7.5 Z M7.5,7.5 L10,7.5 L10,10 L7.5,10 L7.5,7.5 Z"></path>
          </g>
          <g
              id="starOne"
              transform="translate(295.000000, 76.000000)">
            <path d="M7.5,0 L10,0 L10,5 L7.5,5 L7.5,0 Z M7.5,12 L10,12 L10,17 L7.5,17 L7.5,12 Z M0,7.5 L5,7.5 L5,10 L0,10 L0,7.5 Z M12,7.5 L17,7.5 L17,10 L12,10 L12,7.5 Z M7.5,7.5 L10,7.5 L10,10 L7.5,10 L7.5,7.5 Z"></path>
          </g>
          <g
              id="starOne"
              transform="translate(295.000000, 238.000000)">
            <path d="M7.5,0 L10,0 L10,5 L7.5,5 L7.5,0 Z M7.5,12 L10,12 L10,17 L7.5,17 L7.5,12 Z M0,7.5 L5,7.5 L5,10 L0,10 L0,7.5 Z M12,7.5 L17,7.5 L17,10 L12,10 L12,7.5 Z M7.5,7.5 L10,7.5 L10,10 L7.5,10 L7.5,7.5 Z"></path>
          </g>
          <g
              id="starTwo"
              transform="translate(183.000000, 193.000000)">
            <path d="M7.5,0 L10,0 L10,2.5 L7.5,2.5 L7.5,0 Z M7.5,14.5 L10,14.5 L10,17 L7.5,17 L7.5,14.5 Z M0,7.5 L2.5,7.5 L2.5,10 L0,10 L0,7.5 Z M14.5,7.5 L17,7.5 L17,10 L14.5,10 L14.5,7.5 Z"></path>
          </g>
          <g
              id="starTwo"
              transform="translate(183.000000, 394.000000)">
            <path d="M7.5,0 L10,0 L10,2.5 L7.5,2.5 L7.5,0 Z M7.5,14.5 L10,14.5 L10,17 L7.5,17 L7.5,14.5 Z M0,7.5 L2.5,7.5 L2.5,10 L0,10 L0,7.5 Z M14.5,7.5 L17,7.5 L17,10 L14.5,10 L14.5,7.5 Z"></path>
          </g>
          <g
              id="starTwo"
              transform="translate(98.000000, 125.000000)">
            <path d="M7.5,0 L10,0 L10,2.5 L7.5,2.5 L7.5,0 Z M7.5,14.5 L10,14.5 L10,17 L7.5,17 L7.5,14.5 Z M0,7.5 L2.5,7.5 L2.5,10 L0,10 L0,7.5 Z M14.5,7.5 L17,7.5 L17,10 L14.5,10 L14.5,7.5 Z"></path>
          </g>
          <g
              id="starTwo"
              transform="translate(98.000000, 307.000000)">
            <path d="M7.5,0 L10,0 L10,2.5 L7.5,2.5 L7.5,0 Z M7.5,14.5 L10,14.5 L10,17 L7.5,17 L7.5,14.5 Z M0,7.5 L2.5,7.5 L2.5,10 L0,10 L0,7.5 Z M14.5,7.5 L17,7.5 L17,10 L14.5,10 L14.5,7.5 Z"></path>
          </g>
          <g
              id="starFour"
              transform="translate(135.000000, 74.000000)">
            <path
                d="M2.5,5 L0,5 L0,2.5 L2.5,2.5 L2.5,4.5 L4.5,4.5 L4.5,2.5 L2.5,2.5 L2.5,0 L5,0 L5,2.5 L7,2.5 L7,5 L5,5 L5,7 L2.5,7 L2.5,5 Z"
                id="starThree"></path>
          </g>
          <g
              id="starFour"
              transform="translate(135.000000, 256.000000)">
            <path
                d="M2.5,5 L0,5 L0,2.5 L2.5,2.5 L2.5,4.5 L4.5,4.5 L4.5,2.5 L2.5,2.5 L2.5,0 L5,0 L5,2.5 L7,2.5 L7,5 L5,5 L5,7 L2.5,7 L2.5,5 Z"
                id="starThree"></path>
          </g>
          <g
              id="starFour"
              transform="translate(260.000000, 194.000000)">
            <path
                d="M2.5,5 L0,5 L0,2.5 L2.5,2.5 L2.5,4.5 L4.5,4.5 L4.5,2.5 L2.5,2.5 L2.5,0 L5,0 L5,2.5 L7,2.5 L7,5 L5,5 L5,7 L2.5,7 L2.5,5 Z"
                id="starThree"></path>
          </g>
          <g
              id="starFour"
              transform="translate(260.000000, 394.000000)">
            <path
                d="M2.5,5 L0,5 L0,2.5 L2.5,2.5 L2.5,4.5 L4.5,4.5 L4.5,2.5 L2.5,2.5 L2.5,0 L5,0 L5,2.5 L7,2.5 L7,5 L5,5 L5,7 L2.5,7 L2.5,5 Z"
                id="starThree"></path>
          </g>
          <g
              id="starFour"
              transform="translate(338.000000, 63.000000)">
            <path
                d="M2.5,5 L0,5 L0,2.5 L2.5,2.5 L2.5,4.5 L4.5,4.5 L4.5,2.5 L2.5,2.5 L2.5,0 L5,0 L5,2.5 L7,2.5 L7,5 L5,5 L5,7 L2.5,7 L2.5,5 Z"
                id="starThree"></path>
          </g>
          <g
              id="starFour"
              transform="translate(19.000000, 63.000000)">
            <path
                d="M2.5,5 L0,5 L0,2.5 L2.5,2.5 L2.5,4.5 L4.5,4.5 L4.5,2.5 L2.5,2.5 L2.5,0 L5,0 L5,2.5 L7,2.5 L7,5 L5,5 L5,7 L2.5,7 L2.5,5 Z"
                id="starThree"></path>
          </g>
          <g
              id="starFour"
              transform="translate(338.000000, 236.000000)">
            <path
                d="M2.5,5 L0,5 L0,2.5 L2.5,2.5 L2.5,4.5 L4.5,4.5 L4.5,2.5 L2.5,2.5 L2.5,0 L5,0 L5,2.5 L7,2.5 L7,5 L5,5 L5,7 L2.5,7 L2.5,5 Z"
                id="starThree"></path>
          </g>
          <g
              id="starFour"
              transform="translate(338.000000, 436.000000)">
            <path
                d="M2.5,5 L0,5 L0,2.5 L2.5,2.5 L2.5,4.5 L4.5,4.5 L4.5,2.5 L2.5,2.5 L2.5,0 L5,0 L5,2.5 L7,2.5 L7,5 L5,5 L5,7 L2.5,7 L2.5,5 Z"
                id="starThree"></path>
          </g>
          <g
              id="starFive"
              transform="translate(7.000000, 145.000000)">
            <path d="M7.5,7.5 L7.5,12 L5,12 L5,7.5 L0,7.5 L0,5 L5,5 L5,7 L7,7 L7,5 L5,5 L5,0 L7.5,0 L7.5,5 L12,5 L12,7.5 L7.5,7.5 Z"></path>
          </g>
          <g
              id="starFive"
              transform="translate(7.000000, 327.000000)">
            <path d="M7.5,7.5 L7.5,12 L5,12 L5,7.5 L0,7.5 L0,5 L5,5 L5,7 L7,7 L7,5 L5,5 L5,0 L7.5,0 L7.5,5 L12,5 L12,7.5 L7.5,7.5 Z"></path>
          </g>
          <g
              id="starFive"
              transform="translate(45.000000, 96.000000)">
            <path d="M7.5,7.5 L7.5,12 L5,12 L5,7.5 L0,7.5 L0,5 L5,5 L5,7 L7,7 L7,5 L5,5 L5,0 L7.5,0 L7.5,5 L12,5 L12,7.5 L7.5,7.5 Z"></path>
          </g>
          <g
              id="starFive"
              transform="translate(45.000000, 278.000000)">
            <path d="M7.5,7.5 L7.5,12 L5,12 L5,7.5 L0,7.5 L0,5 L5,5 L5,7 L7,7 L7,5 L5,5 L5,0 L7.5,0 L7.5,5 L12,5 L12,7.5 L7.5,7.5 Z"></path>
          </g>
          <g
              id="starFive"
              transform="translate(182.000000, 119.000000)">
            <path d="M7.5,7.5 L7.5,12 L5,12 L5,7.5 L0,7.5 L0,5 L5,5 L5,7 L7,7 L7,5 L5,5 L5,0 L7.5,0 L7.5,5 L12,5 L12,7.5 L7.5,7.5 Z"></path>
          </g>
          <g
              id="starFive"
              transform="translate(182.000000, 301.000000)">
            <path d="M7.5,7.5 L7.5,12 L5,12 L5,7.5 L0,7.5 L0,5 L5,5 L5,7 L7,7 L7,5 L5,5 L5,0 L7.5,0 L7.5,5 L12,5 L12,7.5 L7.5,7.5 Z"></path>
          </g>
          <g
              id="starFive"
              transform="translate(230.000000, 67.000000)">
            <path d="M7.5,7.5 L7.5,12 L5,12 L5,7.5 L0,7.5 L0,5 L5,5 L5,7 L7,7 L7,5 L5,5 L5,0 L7.5,0 L7.5,5 L12,5 L12,7.5 L7.5,7.5 Z"></path>
          </g>
          <g
              id="starFive"
              transform="translate(230.000000, 249.000000)">
            <path d="M7.5,7.5 L7.5,12 L5,12 L5,7.5 L0,7.5 L0,5 L5,5 L5,7 L7,7 L7,5 L5,5 L5,0 L7.5,0 L7.5,5 L12,5 L12,7.5 L7.5,7.5 Z"></path>
          </g>
          <g
              id="starSix"
              transform="translate(23.000000, 218.000000)">
            <path d="M7.5,0 L10,0 L10,2.5 L7.5,2.5 L7.5,0 Z M12,2.5 L14.5,2.5 L14.5,5 L12,5 L12,2.5 Z M14.5,7.5 L17,7.5 L17,10 L14.5,10 L14.5,7.5 Z M12,12 L14.5,12 L14.5,14.5 L12,14.5 L12,12 Z M7.5,14.5 L10,14.5 L10,17 L7.5,17 L7.5,14.5 Z M2.5,12 L5,12 L5,14.5 L2.5,14.5 L2.5,12 Z M0,7.5 L2.5,7.5 L2.5,10 L0,10 L0,7.5 Z M2.5,2.5 L5,2.5 L5,5 L2.5,5 L2.5,2.5 Z"></path>
          </g>
          <g
              id="starSix"
              transform="translate(23.000000, 418.000000)">
            <path d="M7.5,0 L10,0 L10,2.5 L7.5,2.5 L7.5,0 Z M12,2.5 L14.5,2.5 L14.5,5 L12,5 L12,2.5 Z M14.5,7.5 L17,7.5 L17,10 L14.5,10 L14.5,7.5 Z M12,12 L14.5,12 L14.5,14.5 L12,14.5 L12,12 Z M7.5,14.5 L10,14.5 L10,17 L7.5,17 L7.5,14.5 Z M2.5,12 L5,12 L5,14.5 L2.5,14.5 L2.5,12 Z M0,7.5 L2.5,7.5 L2.5,10 L0,10 L0,7.5 Z M2.5,2.5 L5,2.5 L5,5 L2.5,5 L2.5,2.5 Z"></path>
          </g>
          <g
              id="starSix"
              transform="translate(293.000000, 140.000000)">
            <path d="M7.5,0 L10,0 L10,2.5 L7.5,2.5 L7.5,0 Z M12,2.5 L14.5,2.5 L14.5,5 L12,5 L12,2.5 Z M14.5,7.5 L17,7.5 L17,10 L14.5,10 L14.5,7.5 Z M12,12 L14.5,12 L14.5,14.5 L12,14.5 L12,12 Z M7.5,14.5 L10,14.5 L10,17 L7.5,17 L7.5,14.5 Z M2.5,12 L5,12 L5,14.5 L2.5,14.5 L2.5,12 Z M0,7.5 L2.5,7.5 L2.5,10 L0,10 L0,7.5 Z M2.5,2.5 L5,2.5 L5,5 L2.5,5 L2.5,2.5 Z"></path>
          </g>
          <g
              id="starSix"
              transform="translate(293.000000, 322.000000)">
            <path d="M7.5,0 L10,0 L10,2.5 L7.5,2.5 L7.5,0 Z M12,2.5 L14.5,2.5 L14.5,5 L12,5 L12,2.5 Z M14.5,7.5 L17,7.5 L17,10 L14.5,10 L14.5,7.5 Z M12,12 L14.5,12 L14.5,14.5 L12,14.5 L12,12 Z M7.5,14.5 L10,14.5 L10,17 L7.5,17 L7.5,14.5 Z M2.5,12 L5,12 L5,14.5 L2.5,14.5 L2.5,12 Z M0,7.5 L2.5,7.5 L2.5,10 L0,10 L0,7.5 Z M2.5,2.5 L5,2.5 L5,5 L2.5,5 L2.5,2.5 Z"></path>
          </g>
          <g
              id="starFour"
              transform="translate(139.000000, 182.000000)">
            <path
                d="M2.5,5 L0,5 L0,2.5 L2.5,2.5 L2.5,4.5 L4.5,4.5 L4.5,2.5 L2.5,2.5 L2.5,0 L5,0 L5,2.5 L7,2.5 L7,5 L5,5 L5,7 L2.5,7 L2.5,5 Z"
                id="starThree"></path>
          </g>
          <g
              id="starFour"
              transform="translate(139.000000, 364.000000)">
            <path
                d="M2.5,5 L0,5 L0,2.5 L2.5,2.5 L2.5,4.5 L4.5,4.5 L4.5,2.5 L2.5,2.5 L2.5,0 L5,0 L5,2.5 L7,2.5 L7,5 L5,5 L5,7 L2.5,7 L2.5,5 Z"
                id="starThree"></path>
          </g>
          <g
              id="starFour"
              transform="translate(217.000000, 183.000000)">
            <path
                d="M2.5,5 L0,5 L0,2.5 L2.5,2.5 L2.5,4.5 L4.5,4.5 L4.5,2.5 L2.5,2.5 L2.5,0 L5,0 L5,2.5 L7,2.5 L7,5 L5,5 L5,7 L2.5,7 L2.5,5 Z"
                id="starThree"></path>
          </g>
          <g
              id="starFour"
              transform="translate(217.000000, 365.000000)">
            <path
                d="M2.5,5 L0,5 L0,2.5 L2.5,2.5 L2.5,4.5 L4.5,4.5 L4.5,2.5 L2.5,2.5 L2.5,0 L5,0 L5,2.5 L7,2.5 L7,5 L5,5 L5,7 L2.5,7 L2.5,5 Z"
                id="starThree"></path>
          </g>
        </g>
      </g>
    </g>
  </g>
</svg>